<?xml version="1.0" encoding="utf-8"?>
<!-- Generator: Adobe Illustrator 27.4.0, SVG Export Plug-In . SVG Version: 6.00 Build 0)  -->
<svg version="1.1" id="Layer_1" xmlns="http://www.w3.org/2000/svg" xmlns:xlink="http://www.w3.org/1999/xlink" x="0px" y="0px"
	 viewBox="0 0 645 140" style="enable-background:new 0 0 645 140;" xml:space="preserve">
<style type="text/css">
	.st0{fill:none;stroke:#000000;stroke-width:10;stroke-miterlimit:10;}
</style>
<g>
	<path d="M79.67,83.23c-3.55,16.46-15.96,28.45-38.06,28.45c-27.98,0-41.21-19.8-41.21-44.91c0-24.19,13.65-45.87,42.13-45.87
		c23.5,0,34.89,13.8,37.05,28.55H60.49c-1.84-6.8-6.58-13.58-18.57-13.58c-15.74,0-21.81,14.16-21.81,30.22
		c0,14.92,5.27,30.64,22.33,30.64c12.45,0,16.38-8.34,18.05-13.49H79.67z"/>
	<path d="M176.88,66.01c0,24.56-14.75,45.71-43.41,45.71c-27.7,0-42.19-20.13-42.19-45.41c0-25.68,16.01-45.41,43.43-45.41
		C160.52,20.9,176.88,38.99,176.88,66.01z M110.99,65.93c0,17.23,7.56,30.26,23.21,30.26c16.97,0,22.98-14.21,22.98-29.94
		c0-16.7-6.84-29.82-23.29-29.82C117.94,36.43,110.99,48.74,110.99,65.93z"/>
	<path d="M222.56,24.19h19.08V96.8h43.96l-2.18,15.64h-60.86V24.19z"/>
	<path d="M341.01,22.19v88.25h-19.08V22.19H341.01z"/>
	<path d="M362.12,110.44V22.19h23.65c11.02,19.81,31.4,55.55,35.45,65.17h0.24c-0.99-9.21-0.98-24.54-0.98-39.02V22.19h17.29v88.25
		h-22.43c-9.48-17.24-32.06-58.3-36.43-68.49h-0.24c0.64,7.72,0.85,25.85,0.85,41.65v26.84H362.12z"/>
	<path d="M419.89,22.19h18.86v39.38c5.82-6.8,23.98-26.7,35.14-39.38h22.85l-35.46,36.68l36.75,51.57h-22.89l-27.08-39.2l-9.31,8.9
		v30.3h-18.86V22.19z"/>
	<path d="M566.03,72.38h-42.21V94.8H568l0.12,15.64h-62.81V22.19h62.58v15.64h-44.06v18.91h42.21V72.38z"/>
	<path d="M595.67,75.12v35.32h-18.65V22.19h38.78c19.24,0,29.6,10.6,29.6,24.23c0,11.84-6.45,18.25-12.83,20.88
		c4.37,1.61,10.97,6.16,10.97,21.96v4.36c0,5.93,0.05,12.69,1.26,16.83h-18.08c-1.55-3.84-1.84-10.45-1.84-19.82v-1.29
		c0-9.65-2.44-14.22-16.66-14.22H595.67z M595.67,59.92h16c10.45,0,14.48-3.97,14.48-11.35c0-7.18-4.69-11.2-14.02-11.2h-16.45
		V59.92z"/>
	<circle class="st0" cx="249" cy="70" r="63"/>
</g>
</svg>
